<?xml version="1.0" encoding="iso-8859-1"?>
<!-- Generator: Adobe Illustrator 19.0.0, SVG Export Plug-In . SVG Version: 6.00 Build 0)  -->
<svg xmlns="http://www.w3.org/2000/svg" xmlns:xlink="http://www.w3.org/1999/xlink" version="1.1" id="Layer_1" x="0px" y="0px" viewBox="0 0 486 486" style="enable-background:new 0 0 486 486;" xml:space="preserve" width="512" height="512">
<g>
	<g>
		<rect x="78" y="50" style="fill:#754C24;" width="330" height="45"/>
		<rect x="119" y="10" style="fill:#754C24;" width="248" height="40"/>
		<polygon style="fill:#B3B3B3;" points="142,476 344,476 354.394,377 131.606,377   "/>
		<polygon style="fill:#B3B3B3;" points="384,95 102,95 112.499,195 373.501,195   "/>
		<polygon style="fill:#C69C6D;" points="112.499,195 131.606,377 354.394,377 373.501,195   "/>
	</g>
	<g>
		<path d="M132.055,477.044c0.534,5.091,4.827,8.956,9.945,8.956h202c5.118,0,9.411-3.865,9.945-8.956L393.005,105H408    c5.522,0,10-4.478,10-10V50c0-5.522-4.478-10-10-10h-31V10c0-5.522-4.478-10-10-10H119c-5.522,0-10,4.478-10,10v30H78    c-5.522,0-10,4.478-10,10v45c0,5.522,4.478,10,10,10h14.995L132.055,477.044z M129,20h228v20H129V20z M345.389,367H140.611    l-17.008-162h238.793L345.389,367z M334.995,466h-183.99l-8.294-79h200.578L334.995,466z M364.496,185H121.504l-8.399-80h259.791    L364.496,185z M88,85V60h310v25H88z"/>
		<path d="M277,238h12c5.522,0,10-4.478,10-10s-4.478-10-10-10h-12c-5.522,0-10,4.478-10,10S271.478,238,277,238z"/>
		<path d="M150,238h91c5.522,0,10-4.478,10-10s-4.478-10-10-10h-91c-5.522,0-10,4.478-10,10S144.478,238,150,238z"/>
	</g>
</g>















</svg>
